<?xml version="1.0" encoding="UTF-8" standalone="no"?>
<!-- Created with matplotlib (https://matplotlib.org/) -->

<svg
   height="255pt"
   version="1.1"
   viewBox="0 0 270 255"
   width="270pt"
   id="svg263"
   sodipodi:docname="elliComparison.svg"
   inkscape:version="1.1.2 (76b9e6a115, 2022-02-25)"
   xmlns:inkscape="http://www.inkscape.org/namespaces/inkscape"
   xmlns:sodipodi="http://sodipodi.sourceforge.net/DTD/sodipodi-0.dtd"
   xmlns:xlink="http://www.w3.org/1999/xlink"
   xmlns="http://www.w3.org/2000/svg"
   xmlns:svg="http://www.w3.org/2000/svg">
  <sodipodi:namedview
     id="namedview265"
     pagecolor="#ffffff"
     bordercolor="#666666"
     borderopacity="1.0"
     inkscape:pageshadow="2"
     inkscape:pageopacity="0.0"
     inkscape:pagecheckerboard="0"
     inkscape:document-units="pt"
     showgrid="false"
     fit-margin-top="0"
     fit-margin-left="0"
     fit-margin-right="0"
     fit-margin-bottom="0"
     inkscape:zoom="1.0842014"
     inkscape:cx="-96.384307"
     inkscape:cy="178.01121"
     inkscape:window-width="1920"
     inkscape:window-height="1057"
     inkscape:window-x="0"
     inkscape:window-y="0"
     inkscape:window-maximized="1"
     inkscape:current-layer="svg263">
    <inkscape:grid
       type="xygrid"
       id="grid1724"
       originx="-67.5"
       originy="-30" />
  </sodipodi:namedview>
  <defs
     id="defs4">
    <style
       type="text/css"
       id="style2">
*{stroke-linecap:butt;stroke-linejoin:round;}
  </style>
    <marker
       style="overflow:visible"
       id="DotM"
       refX="0"
       refY="0"
       orient="auto"
       inkscape:stockid="DotM"
       inkscape:isstock="true">
      <path
         transform="matrix(0.4,0,0,0.4,2.96,0.4)"
         style="fill:context-stroke;fill-rule:evenodd;stroke:context-stroke;stroke-width:1pt"
         d="m -2.5,-1 c 0,2.76 -2.24,5 -5,5 -2.76,0 -5,-2.24 -5,-5 0,-2.76 2.24,-5 5,-5 2.76,0 5,2.24 5,5 z"
         id="path1818" />
    </marker>
    <marker
       style="overflow:visible"
       id="DotM-3"
       refX="0"
       refY="0"
       orient="auto"
       inkscape:stockid="DotM"
       inkscape:isstock="true">
      <path
         transform="matrix(0.4,0,0,0.4,2.96,0.4)"
         style="fill:context-stroke;fill-rule:evenodd;stroke:context-stroke;stroke-width:1pt"
         d="m -2.5,-1 c 0,2.76 -2.24,5 -5,5 -2.76,0 -5,-2.24 -5,-5 0,-2.76 2.24,-5 5,-5 2.76,0 5,2.24 5,5 z"
         id="path1818-6" />
    </marker>
    <clipPath
       clipPathUnits="userSpaceOnUse"
       id="clipPath1915">
      <rect
         style="fill:#ebebf6;stroke:#666ac2;stroke-width:0.999998"
         id="rect1917"
         width="270"
         height="255"
         x="67.5"
         y="30" />
    </clipPath>
  </defs>
  <g
     id="figure_1"
     clip-path="url(#clipPath1915)"
     transform="translate(-67.5,-30)">
    <g
       id="patch_1">
      <path
         d="M 0,288 H 432 V 0 H 0 Z"
         style="fill:#ffffff"
         id="path6" />
    </g>
    <g
       id="axes_1">
      <g
         id="patch_2">
        <path
           d="M 112.68,252 H 330.12 V 34.56 H 112.68 Z"
           style="fill:#ffffff"
           id="path9" />
        <path
           style="display:inline;fill:none;stroke:#000000;stroke-width:0.75px;stroke-linecap:butt;stroke-linejoin:miter;stroke-opacity:1;marker-end:url(#DotM-3)"
           d="m 205.00152,231.5111 c 82.5,0 93.30335,-5.17315 93.30335,-5.17315 v 0"
           id="path1752"
           sodipodi:nodetypes="ccc" />
        <rect
           style="display:inline;fill:none;fill-opacity:0.44;stroke:#00000b;stroke-width:0.7;stroke-linecap:butt;stroke-linejoin:round;stroke-miterlimit:4;stroke-dasharray:none;stroke-opacity:0.997583"
           id="rect1151-6"
           width="82.5"
           height="82.5"
           x="122.64977"
           y="160.11249" />
        <rect
           style="display:inline;fill:#ebebf6;fill-opacity:1;stroke:#666ac2;stroke-width:0.999997;stroke-linecap:butt;stroke-linejoin:round;stroke-miterlimit:4;stroke-dasharray:none;stroke-opacity:1"
           id="rect2867-9"
           width="3.75"
           height="30"
           x="-27.176065"
           y="255.94437"
           ry="1.4210855e-14"
           transform="rotate(-40.03145)" />
        <rect
           style="display:inline;fill:#ebebf6;fill-opacity:1;stroke:#666ac2;stroke-width:0.999997;stroke-linecap:butt;stroke-linejoin:round;stroke-miterlimit:4;stroke-dasharray:none;stroke-opacity:1"
           id="rect2867-5-3"
           width="3.75"
           height="45"
           x="252.93839"
           y="1.1123638"
           ry="1.4210855e-14"
           transform="rotate(45)" />
        <circle
           style="display:inline;fill:#d6d7ef;fill-opacity:1;stroke:#666ac2;stroke-width:0.999997;stroke-linecap:butt;stroke-linejoin:round;stroke-miterlimit:4;stroke-dasharray:none;stroke-opacity:1"
           id="path3548-6"
           cx="146.64975"
           cy="214.11249"
           r="5.625" />
        <path
           style="display:inline;fill:none;stroke:#000000;stroke-width:0.75px;stroke-linecap:butt;stroke-linejoin:miter;stroke-opacity:1"
           d="m 133.14976,233.61248 h 60"
           id="path3967-0"
           sodipodi:nodetypes="cc" />
        <path
           style="display:inline;fill:none;stroke:#000000;stroke-width:0.75px;stroke-linecap:butt;stroke-linejoin:miter;stroke-opacity:1"
           d="m 136.89976,237.36248 3.75,-3.75"
           id="path3967-6-2-6"
           sodipodi:nodetypes="cc" />
        <path
           style="display:inline;fill:none;stroke:#000000;stroke-width:0.75px;stroke-linecap:butt;stroke-linejoin:miter;stroke-opacity:1"
           d="m 132.39976,237.36248 3.75,-3.75"
           id="path5317-2"
           sodipodi:nodetypes="cc" />
        <path
           style="display:inline;fill:none;stroke:#000000;stroke-width:0.75px;stroke-linecap:butt;stroke-linejoin:miter;stroke-opacity:1"
           d="m 141.39976,237.36248 3.75,-3.75"
           id="path5639-6"
           sodipodi:nodetypes="cc" />
        <path
           style="display:inline;fill:none;stroke:#000000;stroke-width:0.75px;stroke-linecap:butt;stroke-linejoin:miter;stroke-opacity:1"
           d="m 145.89976,237.36248 3.75,-3.75"
           id="path5641-1"
           sodipodi:nodetypes="cc" />
        <path
           style="display:inline;fill:none;stroke:#000000;stroke-width:0.75px;stroke-linecap:butt;stroke-linejoin:miter;stroke-opacity:1"
           d="m 150.39976,237.36248 3.75,-3.75"
           id="path5643-8"
           sodipodi:nodetypes="cc" />
        <path
           style="display:inline;fill:none;stroke:#000000;stroke-width:0.75px;stroke-linecap:butt;stroke-linejoin:miter;stroke-opacity:1"
           d="m 154.89976,237.36248 3.75,-3.75"
           id="path5645-7"
           sodipodi:nodetypes="cc" />
        <path
           style="display:inline;fill:none;stroke:#000000;stroke-width:0.75px;stroke-linecap:butt;stroke-linejoin:miter;stroke-opacity:1"
           d="m 159.39976,237.36248 3.75,-3.75"
           id="path5647-9"
           sodipodi:nodetypes="cc" />
        <path
           style="display:inline;fill:none;stroke:#000000;stroke-width:0.75px;stroke-linecap:butt;stroke-linejoin:miter;stroke-opacity:1"
           d="m 163.89976,237.36248 3.75,-3.75"
           id="path5649-2"
           sodipodi:nodetypes="cc" />
        <path
           style="display:inline;fill:none;stroke:#000000;stroke-width:0.75px;stroke-linecap:butt;stroke-linejoin:miter;stroke-opacity:1"
           d="m 168.39976,237.36248 3.75,-3.75"
           id="path5651-0"
           sodipodi:nodetypes="cc" />
        <path
           style="display:inline;fill:none;stroke:#000000;stroke-width:0.75px;stroke-linecap:butt;stroke-linejoin:miter;stroke-opacity:1"
           d="m 172.89976,237.36248 3.75,-3.75"
           id="path5653-2"
           sodipodi:nodetypes="cc" />
        <path
           style="display:inline;fill:none;stroke:#000000;stroke-width:0.75px;stroke-linecap:butt;stroke-linejoin:miter;stroke-opacity:1"
           d="m 177.39976,237.36248 3.75,-3.75"
           id="path5655-3"
           sodipodi:nodetypes="cc" />
        <path
           style="display:inline;fill:none;stroke:#000000;stroke-width:0.75px;stroke-linecap:butt;stroke-linejoin:miter;stroke-opacity:1"
           d="m 181.89976,237.36248 3.75,-3.75"
           id="path5657-7"
           sodipodi:nodetypes="cc" />
        <path
           style="display:inline;fill:none;stroke:#000000;stroke-width:0.75px;stroke-linecap:butt;stroke-linejoin:miter;stroke-opacity:1"
           d="m 186.39976,237.36248 3.75,-3.75"
           id="path5659-5"
           sodipodi:nodetypes="cc" />
        <circle
           style="display:inline;fill:#d6d7ef;fill-opacity:1;stroke:#666ac2;stroke-width:0.999997;stroke-linecap:butt;stroke-linejoin:round;stroke-miterlimit:4;stroke-dasharray:none;stroke-opacity:1"
           id="path3548-5-9"
           cx="162.39975"
           cy="232.11249"
           r="5.625" />
        <circle
           style="display:inline;fill:#d6d7ef;fill-opacity:1;stroke:#666ac2;stroke-width:1;stroke-linecap:butt;stroke-linejoin:round;stroke-miterlimit:4;stroke-dasharray:none;stroke-opacity:1"
           id="circle1521"
           cx="176.85126"
           cy="182.814"
           r="4.4325032" />
      </g>
      <g
         id="patch_3">
        <path
           clip-path="url(#pce15edab7f)"
           d="m 213.45613,144.44634 c 23.96934,26.12051 47.7972,51.05182 66.23577,69.30308 18.43857,18.25127 29.98243,28.33237 32.08916,28.02305 2.10674,-0.30932 -5.39564,-10.98379 -20.85483,-29.6725 -15.4592,-18.68871 -37.61303,-43.8658 -61.58236,-69.98631 C 205.37453,115.99315 181.54667,91.061844 163.1081,72.810576 144.66953,54.559307 133.12567,44.478209 131.01893,44.787527 c -2.10673,0.309318 5.39565,10.983797 20.85484,29.672507 15.4592,18.68871 37.61302,43.865796 61.58236,69.986306 z"
           style="fill:none;stroke:#0000ff;stroke-linejoin:miter"
           id="path12" />
      </g>
      <g
         id="patch_4">
        <path
           clip-path="url(#pce15edab7f)"
           d="m 221.16885,143.30427 c 1.39453,2.12512 2.75648,4.16093 3.78591,5.65907 1.02942,1.49814 1.64227,2.33629 1.70357,2.32985 0.0613,-0.006 -0.43395,-0.85693 -1.37668,-2.36417 -0.94274,-1.50724 -2.25598,-3.54817 -3.6505,-5.67329 -1.39453,-2.12512 -2.75648,-4.16094 -3.78591,-5.65907 -1.02942,-1.49814 -1.64227,-2.33629 -1.70357,-2.32985 -0.0613,0.006 0.43395,0.85693 1.37668,2.36417 0.94273,1.50724 2.25598,3.54817 3.6505,5.67329 z"
           style="fill:none;stroke:#ff0000;stroke-linejoin:miter"
           id="path15" />
      </g>
      <g
         id="matplotlib.axis_1">
        <g
           id="xtick_1">
          <g
             id="line2d_1">
            <defs
               id="defs19">
              <path
                 d="M 0,0 V 3.5"
                 id="m8805f05ed3"
                 style="stroke:#000000;stroke-width:0.8" />
            </defs>
            <g
               id="g23">
              <use
                 style="stroke:#000000;stroke-width:0.8"
                 x="147.1241"
                 xlink:href="#m8805f05ed3"
                 y="252"
                 id="use21"
                 width="100%"
                 height="100%" />
            </g>
          </g>
          <g
             id="text_1">
            <!-- $2.8$ -->
            <defs
               id="defs29">
              <path
                 d="M 41.703125,15.46875 H 39.90625 c -1,-7.078125 -1.8125,-8.28125 -2.203125,-8.875 C 37.203125,5.796875 30,5.796875 28.59375,5.796875 H 9.40625 C 13,9.6875 20,16.765625 28.5,24.9375 34.59375,30.71875 41.703125,37.5 41.703125,47.390625 41.703125,59.1875 32.296875,66 21.796875,66 c -11,0 -17.703125,-9.703125 -17.703125,-18.703125 0,-3.90625 2.90625,-4.40625 4.109375,-4.40625 1,0 4,0.59375 4,4.09375 C 12.203125,50.09375 9.59375,51 8.203125,51 7.59375,51 7,50.890625 6.59375,50.6875 c 1.90625,8.5 7.703125,12.703125 13.8125,12.703125 8.6875,0 14.390625,-6.890625 14.390625,-16 0,-8.6875 -5.09375,-16.171875 -10.796875,-22.65625 L 4.09375,2.296875 V 0 h 35.203125 z"
                 id="CMR17-50" />
              <path
                 d="M 18.40625,4.796875 C 18.40625,7.6875 16,9.6875 13.59375,9.6875 10.703125,9.6875 8.703125,7.296875 8.703125,4.890625 8.703125,2 11.09375,0 13.5,0 c 2.90625,0 4.90625,2.390625 4.90625,4.796875 z"
                 id="CMMI12-58" />
              <path
                 d="M 27.203125,35.765625 C 33.5,38.96875 39.90625,43.796875 39.90625,51.53125 39.90625,60.6875 31.09375,66 23,66 13.90625,66 5.90625,59.375 5.90625,50.234375 c 0,-2.515625 0.59375,-6.84375 4.5,-10.65625 1,-1 5.1875,-4.015625 7.890625,-5.921875 -4.5,-2.3125 -15,-7.84375 -15,-18.890625 C 3.296875,4.40625 13.09375,-2 22.796875,-2 33.5,-2 42.5,5.71875 42.5,15.96875 c 0,9.140625 -6.09375,13.359375 -10.09375,16.078125 z m -13.109375,8.84375 c -0.796875,0.5 -4.796875,3.609375 -4.796875,8.328125 0,6.140625 6.296875,10.75 13.5,10.75 7.90625,0 13.703125,-5.625 13.703125,-12.15625 0,-9.34375 -10.40625,-14.671875 -10.90625,-14.671875 -0.09375,0 -0.1875,0 -1,0.609375 z M 32.5,24 c 1.5,-1.09375 6.296875,-4.421875 6.296875,-10.546875 0,-7.4375 -7.390625,-13.0625 -15.796875,-13.0625 -9.09375,0 -16,6.53125 -16,14.46875 0,7.9375 6.09375,14.578125 13,17.6875 z"
                 id="CMR17-56" />
            </defs>
            <g
               transform="matrix(0.1,0,0,-0.1,140.75905,265.9185)"
               id="g37">
              <use
                 transform="scale(0.996264)"
                 xlink:href="#CMR17-50"
                 id="use31"
                 x="0"
                 y="0"
                 width="100%"
                 height="100%" />
              <use
                 transform="matrix(0.996264,0,0,0.996264,45.690477,0)"
                 xlink:href="#CMMI12-58"
                 id="use33"
                 x="0"
                 y="0"
                 width="100%"
                 height="100%" />
              <use
                 transform="matrix(0.996264,0,0,0.996264,72.787654,0)"
                 xlink:href="#CMR17-56"
                 id="use35"
                 x="0"
                 y="0"
                 width="100%"
                 height="100%" />
            </g>
          </g>
        </g>
        <g
           id="xtick_2">
          <g
             id="line2d_2">
            <g
               id="g43">
              <use
                 style="stroke:#000000;stroke-width:0.8"
                 x="190.61209"
                 xlink:href="#m8805f05ed3"
                 y="252"
                 id="use41"
                 width="100%"
                 height="100%" />
            </g>
          </g>
          <g
             id="text_2">
            <!-- $3.0$ -->
            <defs
               id="defs48">
              <path
                 d="M 22.09375,34 C 31,34 34.90625,26.140625 34.90625,17.09375 34.90625,5.03125 28.5,0.390625 22.703125,0.390625 c -5.296875,0 -13.90625,2.625 -16.609375,10.40625 0.5,-0.203125 1,-0.203125 1.5,-0.203125 2.40625,0 4.203125,1.59375 4.203125,4.203125 C 11.796875,17.6875 9.59375,19 7.59375,19 5.90625,19 3.296875,18.1875 3.296875,14.484375 3.296875,5.234375 12.296875,-2 22.90625,-2 34,-2 42.5,6.75 42.5,16.984375 42.5,26.84375 34.5,34 25,35.09375 32.59375,36.671875 39.90625,43.375 39.90625,52.390625 39.90625,60.25 32,66 23,66 13.90625,66 5.90625,60.34375 5.90625,52.296875 c 0,-3.5 2.59375,-4.109375 3.890625,-4.109375 2.109375,0 3.90625,1.296875 3.90625,3.90625 C 13.703125,54.6875 11.90625,56 9.796875,56 9.40625,56 8.90625,56 8.5,55.796875 c 2.90625,6.6875 10.796875,7.890625 14.296875,7.890625 3.5,0 10.109375,-1.71875 10.109375,-11.390625 0,-2.8125 -0.40625,-7.75 -3.8125,-12.078125 -3,-3.828125 -6.390625,-4.03125 -9.6875,-4.328125 -0.5,0 -2.8125,-0.203125 -3.203125,-0.203125 C 15.5,35.59375 15.09375,35.5 15.09375,34.796875 15.09375,34.09375 15.203125,34 17.203125,34 Z"
                 id="CMR17-51" />
              <path
                 d="m 42,31.84375 c 0,6.125 -0.09375,16.578125 -4.296875,24.609375 C 34,63.484375 28.09375,66 22.90625,66 18.09375,66 12,63.78125 8.203125,56.5625 4.203125,49.015625 3.796875,39.671875 3.796875,31.84375 3.796875,26.109375 3.90625,17.375 7,9.734375 11.296875,-0.609375 19,-2 22.90625,-2 27.5,-2 34.5,-0.109375 38.59375,9.4375 41.59375,16.375 42,24.5 42,31.84375 Z m -19.09375,-32.25 C 16.5,-0.40625 12.703125,5.125 11.296875,12.75 c -1.09375,5.9375 -1.09375,14.578125 -1.09375,20.203125 0,7.734375 0,14.15625 1.296875,20.28125 1.90625,8.546875 7.5,11.15625 11.40625,11.15625 4.09375,0 9.390625,-2.71875 11.296875,-10.953125 C 35.5,47.71875 35.59375,40.984375 35.59375,32.953125 c 0,-6.53125 0,-14.578125 -1.1875,-20.5 -2.109375,-10.953125 -8,-12.859375 -11.5,-12.859375 z"
                 id="CMR17-48" />
            </defs>
            <g
               transform="matrix(0.1,0,0,-0.1,184.24705,265.9185)"
               id="g56">
              <use
                 transform="scale(0.996264)"
                 xlink:href="#CMR17-51"
                 id="use50"
                 x="0"
                 y="0"
                 width="100%"
                 height="100%" />
              <use
                 transform="matrix(0.996264,0,0,0.996264,45.690477,0)"
                 xlink:href="#CMMI12-58"
                 id="use52"
                 x="0"
                 y="0"
                 width="100%"
                 height="100%" />
              <use
                 transform="matrix(0.996264,0,0,0.996264,72.787654,0)"
                 xlink:href="#CMR17-48"
                 id="use54"
                 x="0"
                 y="0"
                 width="100%"
                 height="100%" />
            </g>
          </g>
        </g>
        <g
           id="xtick_3">
          <g
             id="line2d_3">
            <g
               id="g62">
              <use
                 style="stroke:#000000;stroke-width:0.8"
                 x="234.1001"
                 xlink:href="#m8805f05ed3"
                 y="252"
                 id="use60"
                 width="100%"
                 height="100%" />
            </g>
          </g>
          <g
             id="text_3">
            <!-- $3.2$ -->
            <g
               transform="matrix(0.1,0,0,-0.1,227.73505,265.9185)"
               id="g71">
              <use
                 transform="scale(0.996264)"
                 xlink:href="#CMR17-51"
                 id="use65"
                 x="0"
                 y="0"
                 width="100%"
                 height="100%" />
              <use
                 transform="matrix(0.996264,0,0,0.996264,45.690477,0)"
                 xlink:href="#CMMI12-58"
                 id="use67"
                 x="0"
                 y="0"
                 width="100%"
                 height="100%" />
              <use
                 transform="matrix(0.996264,0,0,0.996264,72.787654,0)"
                 xlink:href="#CMR17-50"
                 id="use69"
                 x="0"
                 y="0"
                 width="100%"
                 height="100%" />
            </g>
          </g>
        </g>
        <g
           id="xtick_4">
          <g
             id="line2d_4">
            <g
               id="g77">
              <use
                 style="stroke:#000000;stroke-width:0.8"
                 x="277.5881"
                 xlink:href="#m8805f05ed3"
                 y="252"
                 id="use75"
                 width="100%"
                 height="100%" />
            </g>
          </g>
          <g
             id="text_4">
            <!-- $3.4$ -->
            <defs
               id="defs81">
              <path
                 d="M 33.59375,64.796875 C 33.59375,66.890625 33.5,67 31.703125,67 L 2,19.59375 V 17 H 27.796875 V 7.1875 c 0,-3.59375 -0.203125,-4.59375 -7.203125,-4.59375 H 18.703125 V 0 c 3.203125,0.1875 8.59375,0.1875 12,0.1875 3.390625,0 8.796875,0 12,-0.1875 v 2.59375 h -1.90625 c -7,0 -7.203125,1 -7.203125,4.59375 V 17 h 10.203125 v 2.59375 H 33.59375 Z m -5.5,-6.625 V 19.59375 H 4 Z"
                 id="CMR17-52" />
            </defs>
            <g
               transform="matrix(0.1,0,0,-0.1,271.22305,265.9185)"
               id="g89">
              <use
                 transform="scale(0.996264)"
                 xlink:href="#CMR17-51"
                 id="use83"
                 x="0"
                 y="0"
                 width="100%"
                 height="100%" />
              <use
                 transform="matrix(0.996264,0,0,0.996264,45.690477,0)"
                 xlink:href="#CMMI12-58"
                 id="use85"
                 x="0"
                 y="0"
                 width="100%"
                 height="100%" />
              <use
                 transform="matrix(0.996264,0,0,0.996264,72.787654,0)"
                 xlink:href="#CMR17-52"
                 id="use87"
                 x="0"
                 y="0"
                 width="100%"
                 height="100%" />
            </g>
          </g>
        </g>
        <g
           id="xtick_5">
          <g
             id="line2d_5">
            <g
               id="g95">
              <use
                 style="stroke:#000000;stroke-width:0.8"
                 x="321.07608"
                 xlink:href="#m8805f05ed3"
                 y="252"
                 id="use93"
                 width="100%"
                 height="100%" />
            </g>
          </g>
          <g
             id="text_5">
            <!-- $3.6$ -->
            <defs
               id="defs99">
              <path
                 d="M 10.59375,34.34375 C 10.59375,58 21.796875,63.6875 28.296875,63.6875 30.40625,63.6875 35.5,63.265625 37.5,59.09375 c -1.59375,0 -4.59375,0 -4.59375,-3.5 C 32.90625,52.890625 35.09375,52 36.5,52 c 0.90625,0 3.59375,0.390625 3.59375,3.796875 0,6.5 -5,10.203125 -11.890625,10.203125 C 16.296875,66 3.796875,53.296875 3.796875,31.421875 3.796875,4.015625 15.09375,-2 23.09375,-2 32.796875,-2 42,6.734375 42,20.234375 42,32.828125 33.90625,42 23.703125,42 17.59375,42 13.09375,37.96875 10.59375,30.921875 Z m 12.5,-33.953125 c -12.296875,0 -12.296875,18.546875 -12.296875,22.265625 0,7.25 3.40625,17.734375 12.703125,17.734375 1.703125,0 6.59375,0 9.90625,-6.953125 1.796875,-3.921875 1.796875,-8.0625 1.796875,-13.09375 0,-5.4375 0,-9.46875 -2.109375,-13.5 -2.1875,-4.140625 -5.390625,-6.453125 -10,-6.453125 z"
                 id="CMR17-54" />
            </defs>
            <g
               transform="matrix(0.1,0,0,-0.1,314.71105,265.9185)"
               id="g107">
              <use
                 transform="scale(0.996264)"
                 xlink:href="#CMR17-51"
                 id="use101"
                 x="0"
                 y="0"
                 width="100%"
                 height="100%" />
              <use
                 transform="matrix(0.996264,0,0,0.996264,45.690477,0)"
                 xlink:href="#CMMI12-58"
                 id="use103"
                 x="0"
                 y="0"
                 width="100%"
                 height="100%" />
              <use
                 transform="matrix(0.996264,0,0,0.996264,72.787654,0)"
                 xlink:href="#CMR17-54"
                 id="use105"
                 x="0"
                 y="0"
                 width="100%"
                 height="100%" />
            </g>
          </g>
        </g>
        <g
           id="text_6">
          <!-- $q_1$ in $rad$ -->
          <defs
             id="defs118">
            <path
               d="m 44.09375,42.984375 c 0,0.5 -0.390625,0.90625 -0.890625,0.90625 C 42.40625,43.890625 38.5,40.296875 36.59375,36.8125 34.796875,41.296875 31.703125,44 27.40625,44 16.09375,44 3.90625,29.421875 3.90625,14.65625 3.90625,4.78125 9.703125,-1 16.5,-1 c 5.296875,0 9.703125,3.984375 11.796875,6.28125 L 28.40625,5.1875 24.59375,-9.578125 23.703125,-13.09375 c -0.90625,-2.921875 -2.40625,-2.921875 -7.109375,-3.015625 -1.09375,0 -2.09375,0 -2.09375,-1.890625 0,-0.703125 0.59375,-1 1.296875,-1 1.40625,0 3.203125,0.1875 4.609375,0.1875 h 10.1875 c 1.5,0 3.203125,-0.1875 4.703125,-0.1875 0.609375,0 1.796875,0 1.796875,1.890625 0,1 -0.796875,1 -2.296875,1 -4.703125,0 -5,0.6875 -5,1.46875 0,0.484375 0.109375,0.578125 0.40625,1.84375 z M 30,11.859375 C 29.5,10.171875 29.5,9.96875 28.09375,8.078125 25.90625,5.28125 21.5,1 16.796875,1 c -4.09375,0 -6.390625,3.6875 -6.390625,9.5625 0,5.5 3.09375,16.671875 5,20.859375 3.390625,6.984375 8.09375,10.5625 12,10.5625 6.59375,0 7.890625,-8.171875 7.890625,-8.96875 0,-0.09375 -0.296875,-1.390625 -0.390625,-1.59375 z"
               id="CMMI12-113" />
            <path
               d="M 26.59375,63.796875 C 26.59375,65.890625 26.5,66 25.09375,66 21.203125,61.359375 15.296875,59.890625 9.703125,59.6875 c -0.296875,0 -0.796875,0 -0.90625,-0.1875 C 8.703125,59.296875 8.703125,59.09375 8.703125,57 11.796875,57 17,57.59375 21,59.984375 v -52.6875 c 0,-3.5 -0.203125,-4.703125 -8.796875,-4.703125 h -3 V 0 C 14,0.09375 19,0.1875 23.796875,0.1875 28.59375,0.1875 33.59375,0.09375 38.40625,0 v 2.59375 h -3 c -8.609375,0 -8.8125,1.09375 -8.8125,4.703125 z"
               id="CMR17-49" />
            <path
               d="M 15.5,61.890625 C 15.5,64.09375 13.703125,66 11.40625,66 9.203125,66 7.296875,64.1875 7.296875,61.890625 c 0,-2.203125 1.796875,-4.09375 4.109375,-4.09375 2.1875,0 4.09375,1.796875 4.09375,4.09375 z m -11.703125,-19 v -2.59375 c 5.609375,0 6.40625,-0.609375 6.40625,-5.4375 V 6.921875 C 10.203125,3.09375 9.796875,2.59375 3.40625,2.59375 V 0 c 2.390625,0.1875 6.6875,0.1875 9.1875,0.1875 2.40625,0 6.5,0 8.8125,-0.1875 v 2.59375 c -5.90625,0 -6.109375,0.609375 -6.109375,4.21875 V 44 Z"
               id="CMR17-105" />
            <path
               d="M 41.5,30.53125 C 41.5,35.65625 40.5,44 28.703125,44 c -7.90625,0 -12,-6.125 -13.5,-10.15625 H 15.09375 V 44 L 3.296875,42.890625 V 40.28125 c 5.90625,0 6.796875,-0.59375 6.796875,-5.421875 V 6.921875 C 10.09375,3.09375 9.703125,2.59375 3.296875,2.59375 V 0 c 2.40625,0.1875 6.796875,0.1875 9.40625,0.1875 2.59375,0 7.09375,0 9.5,-0.1875 V 2.59375 C 15.796875,2.59375 15.40625,3 15.40625,6.921875 V 26.21875 C 15.40625,35.453125 21,42.390625 28,42.390625 c 7.40625,0 8.203125,-6.625 8.203125,-11.453125 V 6.921875 c 0,-3.828125 -0.40625,-4.328125 -6.796875,-4.328125 V 0 c 2.390625,0.1875 6.796875,0.1875 9.390625,0.1875 2.609375,0 7.109375,0 9.5,-0.1875 V 2.59375 C 41.90625,2.59375 41.5,3 41.5,6.921875 Z"
               id="CMR17-110" />
            <path
               d="m 38.90625,41.140625 c -3.109375,-0.546875 -4.703125,-2.75 -4.703125,-4.953125 0,-2.390625 1.890625,-3.203125 3.296875,-3.203125 2.796875,0 5.09375,2.40625 5.09375,5.40625 C 42.59375,41.421875 39.5,44 34.5,44 30.5,44 25.90625,42.1875 21.703125,36.484375 21,41.5625 17,44 13,44 9.09375,44 7.09375,41.28125 5.90625,39.1875 4.203125,35.59375 2.703125,29.5625 2.703125,29.0625 c 0,-0.40625 0.390625,-0.921875 1.09375,-0.921875 0.796875,0 0.90625,0.109375 1.5,2.4375 1.5,6.015625 3.40625,11.40625 7.40625,11.40625 2.390625,0 3.09375,-1.296875 3.09375,-4.1875 0,-2.203125 -1,-6.109375 -1.703125,-9.25 L 11.296875,17.65625 c -0.390625,-1.921875 -1.5,-6.46875 -2,-8.28125 C 8.59375,6.75 7.5,2 7.5,1.5 7.5,0.09375 8.59375,-1 10.09375,-1 c 1.109375,0 3,0.6875 3.609375,2.703125 0.296875,0.796875 4,16.046875 4.59375,18.375 0.5,2.21875 1.109375,4.328125 1.609375,6.5625 0.390625,1.40625 0.796875,3.015625 1.09375,4.328125 0.296875,0.90625 3,5.828125 5.5,8.015625 1.203125,1.109375 3.796875,3 7.90625,3 1.59375,0 3.1875,-0.203125 4.5,-0.84375 z"
               id="CMMI12-114" />
            <path
               d="m 30.09375,11.859375 c -0.5,-1.6875 -0.5,-1.890625 -1.890625,-3.78125 C 26,5.28125 21.59375,1 16.90625,1 12.796875,1 10.5,4.6875 10.5,10.5625 c 0,5.5 3.09375,16.671875 5,20.859375 3.40625,6.984375 8.09375,10.5625 12,10.5625 6.59375,0 7.90625,-8.171875 7.90625,-8.96875 0,-0.09375 -0.3125,-1.390625 -0.40625,-1.59375 z M 36.5,37.40625 C 35.40625,40 32.703125,44 27.5,44 16.203125,44 4,29.421875 4,14.65625 4,4.78125 9.796875,-1 16.59375,-1 c 5.5,0 10.203125,4.28125 13,7.578125 C 30.59375,0.6875 35.296875,-1 38.296875,-1 c 3,0 5.40625,1.796875 7.203125,5.375 1.59375,3.375 3,9.453125 3,9.84375 0,0.5 -0.40625,0.90625 -1,0.90625 -0.90625,0 -1,-0.5 -1.40625,-2 C 44.59375,7.265625 42.703125,1 38.59375,1 35.703125,1 35.5,3.578125 35.5,5.5625 c 0,2.296875 0.296875,3.390625 1.203125,7.265625 0.703125,2.484375 1.203125,4.671875 2,7.5625 3.703125,14.921875 4.59375,18.5 4.59375,19.109375 0,1.390625 -1.09375,2.5 -2.59375,2.5 -3.203125,0 -4,-3.5 -4.203125,-4.6875 z"
               id="CMMI12-97" />
            <path
               d="m 50.296875,66.484375 c 0.109375,0.40625 0.296875,1 0.296875,1.5 0,1.015625 -1,1.015625 -1.1875,1.015625 -0.109375,0 -5,-0.40625 -5.5,-0.515625 -1.703125,-0.09375 -3.203125,-0.296875 -5,-0.390625 -2.5,-0.203125 -3.203125,-0.296875 -3.203125,-2.109375 0,-1 0.796875,-1 2.203125,-1 4.890625,0 5,-0.875 5,-1.859375 0,-0.59375 -0.203125,-1.390625 -0.3125,-1.6875 L 36.5,37.40625 C 35.40625,40 32.703125,44 27.5,44 16.203125,44 4,29.421875 4,14.65625 4,4.78125 9.796875,-1 16.59375,-1 c 5.5,0 10.203125,4.28125 13,7.578125 C 30.59375,0.6875 35.296875,-1 38.296875,-1 c 3,0 5.40625,1.796875 7.203125,5.390625 1.59375,3.390625 3,9.46875 3,9.875 0,0.5 -0.40625,0.890625 -1,0.890625 -0.90625,0 -1,-0.5 -1.40625,-2 C 44.59375,7.28125 42.703125,1 38.59375,1 35.703125,1 35.5,3.59375 35.5,5.578125 c 0,0.40625 0,2.5 0.703125,5.296875 z m -20.203125,-54.625 c -0.5,-1.6875 -0.5,-1.890625 -1.890625,-3.78125 C 26,5.28125 21.59375,1 16.90625,1 12.796875,1 10.5,4.6875 10.5,10.5625 c 0,5.5 3.09375,16.671875 5,20.859375 3.40625,6.984375 8.09375,10.5625 12,10.5625 6.59375,0 7.90625,-8.171875 7.90625,-8.96875 0,-0.09375 -0.3125,-1.390625 -0.40625,-1.59375 z"
               id="CMMI12-100" />
          </defs>
          <g
             transform="matrix(0.1,0,0,-0.1,201.85809,278.77418)"
             id="g134">
            <use
               transform="matrix(0.996264,0,0,0.996264,0,14.943915)"
               xlink:href="#CMMI12-113"
               id="use120"
               x="0"
               y="0"
               width="100%"
               height="100%" />
            <use
               transform="matrix(0.697382,0,0,0.697382,43.251731,0)"
               xlink:href="#CMR17-49"
               id="use122"
               x="0"
               y="0"
               width="100%"
               height="100%" />
            <use
               transform="matrix(0.996264,0,0,0.996264,105.80901,14.943915)"
               xlink:href="#CMR17-105"
               id="use124"
               x="0"
               y="0"
               width="100%"
               height="100%" />
            <use
               transform="matrix(0.996264,0,0,0.996264,130.68007,14.943915)"
               xlink:href="#CMR17-110"
               id="use126"
               x="0"
               y="0"
               width="100%"
               height="100%" />
            <use
               transform="matrix(0.996264,0,0,0.996264,211.65141,14.943915)"
               xlink:href="#CMMI12-114"
               id="use128"
               x="0"
               y="0"
               width="100%"
               height="100%" />
            <use
               transform="matrix(0.996264,0,0,0.996264,258.32202,14.943915)"
               xlink:href="#CMMI12-97"
               id="use130"
               x="0"
               y="0"
               width="100%"
               height="100%" />
            <use
               transform="matrix(0.996264,0,0,0.996264,309.52988,14.943915)"
               xlink:href="#CMMI12-100"
               id="use132"
               x="0"
               y="0"
               width="100%"
               height="100%" />
          </g>
        </g>
      </g>
      <g
         id="matplotlib.axis_2">
        <g
           id="ytick_1">
          <g
             id="line2d_6">
            <defs
               id="defs139">
              <path
                 d="M 0,0 H -3.5"
                 id="m6eb90288f0"
                 style="stroke:#000000;stroke-width:0.8" />
            </defs>
            <g
               id="g143">
              <use
                 style="stroke:#000000;stroke-width:0.8"
                 x="112.68"
                 xlink:href="#m6eb90288f0"
                 y="230.256"
                 id="use141"
                 width="100%"
                 height="100%" />
            </g>
          </g>
          <g
             id="text_7">
            <!-- $-1.0$ -->
            <defs
               id="defs147">
              <path
                 d="m 65.90625,23 c 1.6875,0 3.5,0 3.5,2 0,2 -1.8125,2 -3.5,2 H 11.796875 c -1.703125,0 -3.5,0 -3.5,-2 0,-2 1.796875,-2 3.5,-2 z"
                 id="CMSY10-0" />
            </defs>
            <g
               transform="matrix(0.1,0,0,-0.1,85.201177,233.71525)"
               id="g157">
              <use
                 transform="scale(0.996264)"
                 xlink:href="#CMSY10-0"
                 id="use149"
                 x="0"
                 y="0"
                 width="100%"
                 height="100%" />
              <use
                 transform="matrix(0.996264,0,0,0.996264,77.487468,0)"
                 xlink:href="#CMR17-49"
                 id="use151"
                 x="0"
                 y="0"
                 width="100%"
                 height="100%" />
              <use
                 transform="matrix(0.996264,0,0,0.996264,123.17794,0)"
                 xlink:href="#CMMI12-58"
                 id="use153"
                 x="0"
                 y="0"
                 width="100%"
                 height="100%" />
              <use
                 transform="matrix(0.996264,0,0,0.996264,150.27512,0)"
                 xlink:href="#CMR17-48"
                 id="use155"
                 x="0"
                 y="0"
                 width="100%"
                 height="100%" />
            </g>
          </g>
        </g>
        <g
           id="ytick_2">
          <g
             id="line2d_7">
            <g
               id="g163">
              <use
                 style="stroke:#000000;stroke-width:0.8"
                 x="112.68"
                 xlink:href="#m6eb90288f0"
                 y="186.76801"
                 id="use161"
                 width="100%"
                 height="100%" />
            </g>
          </g>
          <g
             id="text_8">
            <!-- $-0.5$ -->
            <defs
               id="defs167">
              <path
                 d="m 11.40625,58.59375 c 1,-0.40625 5.09375,-1.703125 9.296875,-1.703125 9.296875,0 14.390625,5 17.296875,7.796875 C 38,65.484375 38,66 37.40625,66 c -0.109375,0 -0.3125,0 -1.109375,-0.40625 -3.5,-1.5 -7.59375,-2.59375 -12.59375,-2.59375 -3,0 -7.5,0.359375 -12.40625,2.484375 C 10.203125,66 10,66 9.90625,66 9.40625,66 9.296875,65.890625 9.296875,63.90625 V 34.859375 c 0,-1.84375 0,-2.359375 1,-2.359375 0.5,0 0.703125,0.203125 1.203125,0.921875 C 14.703125,38.046875 19.09375,40 24.09375,40 c 3.5,0 11,-2.265625 11,-19.796875 0,-3.21875 0,-9.015625 -3,-13.609375 -2.5,-4.109375 -6.390625,-6.203125 -10.6875,-6.203125 -6.609375,0 -13.3125,4.59375 -15.109375,12.296875 C 6.703125,12.59375 7.5,12.390625 7.90625,12.390625 c 1.296875,0 3.796875,0.703125 3.796875,3.796875 C 11.703125,18.890625 9.796875,20 7.90625,20 5.59375,20 4.09375,18.59375 4.09375,15.796875 4.09375,7.09375 11,-2 21.59375,-2 c 10.3125,0 20.109375,8.890625 20.109375,21.796875 0,12.296875 -7.796875,21.796875 -17.5,21.796875 -5.109375,0 -9.40625,-1.90625 -12.796875,-5.59375 z"
                 id="CMR17-53" />
            </defs>
            <g
               transform="matrix(0.1,0,0,-0.1,85.201177,190.22725)"
               id="g177">
              <use
                 transform="scale(0.996264)"
                 xlink:href="#CMSY10-0"
                 id="use169"
                 x="0"
                 y="0"
                 width="100%"
                 height="100%" />
              <use
                 transform="matrix(0.996264,0,0,0.996264,77.487468,0)"
                 xlink:href="#CMR17-48"
                 id="use171"
                 x="0"
                 y="0"
                 width="100%"
                 height="100%" />
              <use
                 transform="matrix(0.996264,0,0,0.996264,123.17794,0)"
                 xlink:href="#CMMI12-58"
                 id="use173"
                 x="0"
                 y="0"
                 width="100%"
                 height="100%" />
              <use
                 transform="matrix(0.996264,0,0,0.996264,150.27512,0)"
                 xlink:href="#CMR17-53"
                 id="use175"
                 x="0"
                 y="0"
                 width="100%"
                 height="100%" />
            </g>
          </g>
        </g>
        <g
           id="ytick_3">
          <g
             id="line2d_8">
            <g
               id="g183">
              <use
                 style="stroke:#000000;stroke-width:0.8"
                 x="112.68"
                 xlink:href="#m6eb90288f0"
                 y="143.28"
                 id="use181"
                 width="100%"
                 height="100%" />
            </g>
          </g>
          <g
             id="text_9">
            <!-- $0.0$ -->
            <g
               transform="matrix(0.1,0,0,-0.1,92.949921,146.73925)"
               id="g192">
              <use
                 transform="scale(0.996264)"
                 xlink:href="#CMR17-48"
                 id="use186"
                 x="0"
                 y="0"
                 width="100%"
                 height="100%" />
              <use
                 transform="matrix(0.996264,0,0,0.996264,45.690477,0)"
                 xlink:href="#CMMI12-58"
                 id="use188"
                 x="0"
                 y="0"
                 width="100%"
                 height="100%" />
              <use
                 transform="matrix(0.996264,0,0,0.996264,72.787654,0)"
                 xlink:href="#CMR17-48"
                 id="use190"
                 x="0"
                 y="0"
                 width="100%"
                 height="100%" />
            </g>
          </g>
        </g>
        <g
           id="ytick_4">
          <g
             id="line2d_9">
            <g
               id="g198">
              <use
                 style="stroke:#000000;stroke-width:0.8"
                 x="112.68"
                 xlink:href="#m6eb90288f0"
                 y="99.792"
                 id="use196"
                 width="100%"
                 height="100%" />
            </g>
          </g>
          <g
             id="text_10">
            <!-- $0.5$ -->
            <g
               transform="matrix(0.1,0,0,-0.1,92.949921,103.25125)"
               id="g207">
              <use
                 transform="scale(0.996264)"
                 xlink:href="#CMR17-48"
                 id="use201"
                 x="0"
                 y="0"
                 width="100%"
                 height="100%" />
              <use
                 transform="matrix(0.996264,0,0,0.996264,45.690477,0)"
                 xlink:href="#CMMI12-58"
                 id="use203"
                 x="0"
                 y="0"
                 width="100%"
                 height="100%" />
              <use
                 transform="matrix(0.996264,0,0,0.996264,72.787654,0)"
                 xlink:href="#CMR17-53"
                 id="use205"
                 x="0"
                 y="0"
                 width="100%"
                 height="100%" />
            </g>
          </g>
        </g>
        <g
           id="ytick_5">
          <g
             id="line2d_10">
            <g
               id="g213">
              <use
                 style="stroke:#000000;stroke-width:0.8"
                 x="112.68"
                 xlink:href="#m6eb90288f0"
                 y="56.304001"
                 id="use211"
                 width="100%"
                 height="100%" />
            </g>
          </g>
          <g
             id="text_11">
            <!-- $1.0$ -->
            <g
               transform="matrix(0.1,0,0,-0.1,92.949921,59.763249)"
               id="g222">
              <use
                 transform="scale(0.996264)"
                 xlink:href="#CMR17-49"
                 id="use216"
                 x="0"
                 y="0"
                 width="100%"
                 height="100%" />
              <use
                 transform="matrix(0.996264,0,0,0.996264,45.690477,0)"
                 xlink:href="#CMMI12-58"
                 id="use218"
                 x="0"
                 y="0"
                 width="100%"
                 height="100%" />
              <use
                 transform="matrix(0.996264,0,0,0.996264,72.787654,0)"
                 xlink:href="#CMR17-48"
                 id="use220"
                 x="0"
                 y="0"
                 width="100%"
                 height="100%" />
            </g>
          </g>
        </g>
        <g
           id="text_12">
          <!-- $q_2$ in $rad$ -->
          <g
             transform="matrix(0,-0.1,-0.1,0,79.263999,162.82191)"
             id="g240">
            <use
               transform="matrix(0.996264,0,0,0.996264,0,14.943915)"
               xlink:href="#CMMI12-113"
               id="use226"
               x="0"
               y="0"
               width="100%"
               height="100%" />
            <use
               transform="matrix(0.697382,0,0,0.697382,43.251731,0)"
               xlink:href="#CMR17-50"
               id="use228"
               x="0"
               y="0"
               width="100%"
               height="100%" />
            <use
               transform="matrix(0.996264,0,0,0.996264,105.80901,14.943915)"
               xlink:href="#CMR17-105"
               id="use230"
               x="0"
               y="0"
               width="100%"
               height="100%" />
            <use
               transform="matrix(0.996264,0,0,0.996264,130.68007,14.943915)"
               xlink:href="#CMR17-110"
               id="use232"
               x="0"
               y="0"
               width="100%"
               height="100%" />
            <use
               transform="matrix(0.996264,0,0,0.996264,211.65141,14.943915)"
               xlink:href="#CMMI12-114"
               id="use234"
               x="0"
               y="0"
               width="100%"
               height="100%" />
            <use
               transform="matrix(0.996264,0,0,0.996264,258.32202,14.943915)"
               xlink:href="#CMMI12-97"
               id="use236"
               x="0"
               y="0"
               width="100%"
               height="100%" />
            <use
               transform="matrix(0.996264,0,0,0.996264,309.52988,14.943915)"
               xlink:href="#CMMI12-100"
               id="use238"
               x="0"
               y="0"
               width="100%"
               height="100%" />
          </g>
        </g>
      </g>
      <g
         id="patch_5">
        <path
           d="M 112.68,252 V 34.56"
           style="fill:none;stroke:#000000;stroke-width:0.8;stroke-linecap:square;stroke-linejoin:miter"
           id="path244" />
      </g>
      <g
         id="patch_6">
        <path
           d="M 330.12,252 V 34.56"
           style="fill:none;stroke:#000000;stroke-width:0.8;stroke-linecap:square;stroke-linejoin:miter"
           id="path247" />
      </g>
      <g
         id="patch_7">
        <path
           d="M 112.68,252 H 330.12"
           style="fill:none;stroke:#000000;stroke-width:0.8;stroke-linecap:square;stroke-linejoin:miter"
           id="path250" />
      </g>
      <g
         id="patch_8">
        <path
           d="M 112.68,34.56 H 330.12"
           style="fill:none;stroke:#000000;stroke-width:0.8;stroke-linecap:square;stroke-linejoin:miter"
           id="path253" />
      </g>
    </g>
  </g>
  <path
     style="display:inline;fill:none;stroke:#000000;stroke-width:0.75px;stroke-linecap:butt;stroke-linejoin:miter;stroke-opacity:1;marker-end:url(#DotM)"
     d="m 182.4267,95.51674 c 0,18.75 -22.86384,26.37103 -22.86384,26.37103"
     id="path2265"
     sodipodi:nodetypes="cc" />
  <rect
     style="display:inline;fill:none;fill-opacity:0.44;stroke:#00000b;stroke-width:0.7;stroke-linecap:butt;stroke-linejoin:round;stroke-miterlimit:4;stroke-dasharray:none;stroke-opacity:0.997583"
     id="rect1151"
     width="82.5"
     height="82.5"
     x="171.83621"
     y="12.791168" />
  <rect
     style="display:inline;fill:#f9e7e7;fill-opacity:1;stroke:#dd2a2b;stroke-width:0.999997;stroke-linecap:butt;stroke-linejoin:round;stroke-miterlimit:4;stroke-dasharray:none;stroke-opacity:1"
     id="rect2867"
     width="3.75"
     height="30"
     x="196.75955"
     y="83.267754"
     ry="1.4210855e-14"
     transform="rotate(-7.7617141)" />
  <rect
     style="display:inline;fill:#f9e7e7;fill-opacity:1;stroke:#dd2a2b;stroke-width:0.999997;stroke-linecap:butt;stroke-linejoin:round;stroke-miterlimit:4;stroke-dasharray:none;stroke-opacity:1"
     id="rect2867-5"
     width="3.75"
     height="30"
     x="212.89038"
     y="-36.78656"
     ry="1.4210855e-14"
     transform="rotate(15)" />
  <circle
     style="display:inline;fill:#f4cece;fill-opacity:1;stroke:#dd2a2b;stroke-width:0.999997;stroke-linecap:butt;stroke-linejoin:round;stroke-miterlimit:4;stroke-dasharray:none;stroke-opacity:1"
     id="path3548"
     cx="207.83621"
     cy="53.291168"
     r="5.625" />
  <path
     style="display:inline;fill:none;stroke:#000000;stroke-width:0.75px;stroke-linecap:butt;stroke-linejoin:miter;stroke-opacity:1"
     d="m 183.08622,87.04116 h 60"
     id="path3967"
     sodipodi:nodetypes="cc" />
  <path
     style="display:inline;fill:none;stroke:#000000;stroke-width:0.75px;stroke-linecap:butt;stroke-linejoin:miter;stroke-opacity:1"
     d="m 186.83622,90.79116 3.75,-3.75"
     id="path3967-6-2"
     sodipodi:nodetypes="cc" />
  <path
     style="display:inline;fill:none;stroke:#000000;stroke-width:0.75px;stroke-linecap:butt;stroke-linejoin:miter;stroke-opacity:1"
     d="m 182.33622,90.79116 3.75,-3.75"
     id="path5317"
     sodipodi:nodetypes="cc" />
  <path
     style="display:inline;fill:none;stroke:#000000;stroke-width:0.75px;stroke-linecap:butt;stroke-linejoin:miter;stroke-opacity:1"
     d="m 191.33622,90.79116 3.75,-3.75"
     id="path5639"
     sodipodi:nodetypes="cc" />
  <path
     style="display:inline;fill:none;stroke:#000000;stroke-width:0.75px;stroke-linecap:butt;stroke-linejoin:miter;stroke-opacity:1"
     d="m 195.83622,90.79116 3.75,-3.75"
     id="path5641"
     sodipodi:nodetypes="cc" />
  <path
     style="display:inline;fill:none;stroke:#000000;stroke-width:0.75px;stroke-linecap:butt;stroke-linejoin:miter;stroke-opacity:1"
     d="m 200.33622,90.79116 3.75,-3.75"
     id="path5643"
     sodipodi:nodetypes="cc" />
  <path
     style="display:inline;fill:none;stroke:#000000;stroke-width:0.75px;stroke-linecap:butt;stroke-linejoin:miter;stroke-opacity:1"
     d="m 204.83622,90.79116 3.75,-3.75"
     id="path5645"
     sodipodi:nodetypes="cc" />
  <path
     style="display:inline;fill:none;stroke:#000000;stroke-width:0.75px;stroke-linecap:butt;stroke-linejoin:miter;stroke-opacity:1"
     d="m 209.33622,90.79116 3.75,-3.75"
     id="path5647"
     sodipodi:nodetypes="cc" />
  <path
     style="display:inline;fill:none;stroke:#000000;stroke-width:0.75px;stroke-linecap:butt;stroke-linejoin:miter;stroke-opacity:1"
     d="m 213.83622,90.79116 3.75,-3.75"
     id="path5649"
     sodipodi:nodetypes="cc" />
  <path
     style="display:inline;fill:none;stroke:#000000;stroke-width:0.75px;stroke-linecap:butt;stroke-linejoin:miter;stroke-opacity:1"
     d="m 218.33622,90.79116 3.75,-3.75"
     id="path5651"
     sodipodi:nodetypes="cc" />
  <path
     style="display:inline;fill:none;stroke:#000000;stroke-width:0.75px;stroke-linecap:butt;stroke-linejoin:miter;stroke-opacity:1"
     d="m 222.83622,90.79116 3.75,-3.75"
     id="path5653"
     sodipodi:nodetypes="cc" />
  <path
     style="display:inline;fill:none;stroke:#000000;stroke-width:0.75px;stroke-linecap:butt;stroke-linejoin:miter;stroke-opacity:1"
     d="m 227.33622,90.79116 3.75,-3.75"
     id="path5655"
     sodipodi:nodetypes="cc" />
  <path
     style="display:inline;fill:none;stroke:#000000;stroke-width:0.75px;stroke-linecap:butt;stroke-linejoin:miter;stroke-opacity:1"
     d="m 231.83622,90.79116 3.75,-3.75"
     id="path5657"
     sodipodi:nodetypes="cc" />
  <path
     style="display:inline;fill:none;stroke:#000000;stroke-width:0.75px;stroke-linecap:butt;stroke-linejoin:miter;stroke-opacity:1"
     d="m 236.33622,90.79116 3.75,-3.75"
     id="path5659"
     sodipodi:nodetypes="cc" />
  <circle
     style="display:inline;fill:#f4cece;fill-opacity:1;stroke:#dd2a2b;stroke-width:0.999997;stroke-linecap:butt;stroke-linejoin:round;stroke-miterlimit:4;stroke-dasharray:none;stroke-opacity:1"
     id="path3548-5"
     cx="212.33621"
     cy="87.041168"
     r="5.625" />
  <circle
     style="display:inline;fill:#f4cece;fill-opacity:1;stroke:#dd2a2b;stroke-width:0.999997;stroke-linecap:butt;stroke-linejoin:round;stroke-miterlimit:4;stroke-dasharray:none;stroke-opacity:1"
     id="circle1375"
     cx="216.83621"
     cy="20.291168"
     r="5.625" />
  <defs
     id="defs261">
    <clipPath
       id="pce15edab7f">
      <rect
         height="217.44"
         width="217.44"
         x="112.68"
         y="34.560001"
         id="rect258" />
    </clipPath>
  </defs>
</svg>
